<?xml version="1.0" standalone="no"?>
<!DOCTYPE svg PUBLIC "-//W3C//DTD SVG 20010904//EN"
 "http://www.w3.org/TR/2001/REC-SVG-20010904/DTD/svg10.dtd">
<svg version="1.0" xmlns="http://www.w3.org/2000/svg"
 width="351.000000pt" height="315.000000pt" viewBox="0 0 351.000000 315.000000"
 preserveAspectRatio="xMidYMid meet">

<g transform="translate(0.000000,315.000000) scale(0.100000,-0.100000)"
fill="#000000" stroke="none">
<path d="M2385 2850 c-22 -11 -43 -19 -48 -20 -16 0 -77 -46 -82 -61 -3 -9 6
-81 19 -160 23 -137 40 -286 37 -319 -1 -8 -2 -56 -1 -106 0 -81 -2 -95 -25
-128 -80 -117 -88 -178 -50 -361 15 -71 32 -141 38 -155 20 -42 72 -52 252
-48 218 4 212 1 247 148 52 216 48 289 -20 389 -36 54 -37 57 -37 151 0 66 -5
108 -16 135 -22 52 -36 136 -54 320 -8 83 -19 159 -24 170 -4 11 -29 30 -53
43 -56 28 -128 28 -183 2z m75 -15 c-10 -12 -9 -15 6 -15 18 -1 18 -1 1 -14
-17 -13 -17 -14 0 -21 17 -6 17 -7 -1 -21 -17 -12 -18 -14 -3 -14 19 0 24 -20
5 -20 -7 0 -4 -6 6 -12 19 -11 19 -11 1 -24 -17 -13 -17 -14 -2 -14 20 0 22
-11 5 -28 -9 -9 -8 -12 8 -12 19 -1 19 -1 0 -15 -17 -13 -18 -15 -3 -15 20 0
23 -16 5 -23 -10 -4 -9 -8 2 -16 13 -10 13 -12 0 -21 -13 -8 -12 -10 3 -10 19
0 24 -20 5 -21 -10 0 -10 -2 0 -6 15 -6 16 -33 1 -33 -5 0 -7 -4 -4 -10 3 -6
-5 -10 -19 -10 -28 0 -24 -13 -61 209 -14 85 -22 157 -18 162 8 7 37 16 62 18
11 1 11 -2 1 -14z m85 -1 c9 -9 13 -24 10 -32 -3 -8 0 -19 7 -24 11 -8 11 -10
0 -15 -10 -4 -10 -8 -1 -20 10 -12 10 -16 -2 -24 -11 -7 -11 -9 0 -9 8 0 11
-7 8 -20 -3 -10 0 -21 7 -24 7 -3 6 -8 -4 -15 -13 -10 -13 -12 0 -21 13 -9 13
-11 0 -20 -11 -7 -11 -10 -2 -10 7 0 12 -8 10 -17 -1 -10 1 -24 6 -32 5 -8 3
-16 -5 -22 -8 -5 -9 -9 -3 -9 7 0 11 -11 10 -25 -1 -20 -6 -25 -27 -25 l-25 0
-18 173 c-10 94 -20 180 -22 190 -7 22 28 23 51 1z m-191 -30 c-16 -13 -16
-15 -1 -10 21 7 22 -2 1 -25 -15 -16 -14 -17 5 -12 26 7 27 -5 4 -23 -17 -13
-17 -14 0 -8 19 7 24 -11 5 -22 -8 -5 -6 -10 8 -15 15 -6 13 -8 -12 -8 -36 -1
-31 -16 -70 228 -18 111 -18 113 1 127 26 19 43 18 19 -2z m252 -32 c2 -15 5 -47 8 -72 13 -110 18 -235 8 -225 -9 9 -32 223 -32 302 0 41 13 37
16 -5z m-308 -27 c0 -14 -5 -28 -11 -32 -6 -4 -8 0 -4 10 3 9 1 17 -5 19 -6 2
-8 10 -4 16 12 20 24 14 24 -13z m2 -60 c-10 -12 -10 -15 0 -15 7 0 10 -6 7
-14 -3 -8 -1 -16 5 -18 6 -2 8 -10 4 -16 -11 -18 -25 -15 -24 6 0 9 -3 29 -7
45 -6 22 -4 27 10 27 14 0 15 -3 5 -15z m20 -90 c-7 -9 -15 -13 -17 -11 -7 7
7 26 19 26 6 0 6 -6 -2 -15z m2 -37 c-6 -6 -15 -8 -19 -4 -4 4 -1 11 7 16 19
12 27 3 12 -12z m18 -17 c0 -12 -20 -25 -27 -18 -7 7 6 27 18 27 5 0 9 -4 9
-9z m-8 -43 c-6 -6 -15 -8 -19 -4 -4 4 -1 11 7 16 19 12 27 3 12 -12z m13 -28
c-3 -5 -10 -10 -16 -10 -5 0 -9 5 -9 10 0 6 7 10 16 10 8 0 12 -4 9 -10z m5
-24 c0 -11 -19 -15 -25 -6 -3 5 1 10 9 10 9 0 16 -2 16 -4z m304 -18 c3 -13 6
-35 6 -50 0 -30 13 -26 -170 -47 -77 -9 -160 -11 -160 -3 0 2 15 10 33 18 l32
15 -32 -6 c-18 -4 -33 -4 -33 0 0 3 15 13 33 21 l32 15 -38 -6 c-26 -4 -37 -3
-32 4 3 6 12 11 20 11 7 0 20 7 28 15 17 16 112 32 208 34 61 1 67 -1 73 -21z
m29 -127 c8 -8 7 -11 -3 -11 -13 0 -13 -2 0 -10 12 -7 15 -31 15 -102 0 -51 4
-100 8 -109 6 -12 -5 -20 -48 -38 -34 -14 -60 -32 -65 -45 l-9 -21 -6 21 c-5
16 -33 29 -126 60 -65 21 -119 42 -119 46 0 5 15 8 33 9 l32 1 -34 10 c-40 11
-31 25 19 31 33 4 33 4 -7 5 -49 2 -60 22 -12 22 17 0 28 4 24 10 -3 6 -17 10
-31 10 -42 0 -26 20 19 22 l42 1 -40 4 c-53 6 -64 18 -23 28 l33 8 -27 4 c-45
7 -32 23 20 24 34 0 41 3 27 8 -15 6 -5 10 40 16 33 3 65 8 70 11 21 8 157 -4
168 -15z m-244 -275 c56 -18 111 -43 122 -55 25 -26 39 -27 46 -1 5 19 79 60
109 60 21 0 62 -81 70 -137 6 -50 -19 -227 -35 -245 -3 -4 -30 -10 -59 -14
-46 -6 -52 -5 -46 10 4 11 1 16 -10 16 -9 0 -16 -6 -16 -14 0 -9 -18 -15 -53
-19 -68 -7 -227 3 -227 14 0 5 -15 9 -34 9 -19 0 -38 5 -41 10 -4 6 5 10 19
10 14 0 26 5 26 10 0 6 -11 10 -24 10 -42 0 -40 20 1 22 l38 1 -37 4 c-44 5
-50 20 -10 29 47 10 48 12 5 13 -24 1 -43 6 -43 11 0 6 19 10 43 11 46 1 42 4
-17 14 -45 7 -37 22 14 28 l33 4 33 4 -7 5 c-24 1 -43 7 -43 12 0 6 19 10 43 11
l42 1 -44 10 c-50 11 -44 25 14 31 l40 4 -42 1 c-45 2 -61 22 -19 22 14 0 28
5 31 10 4 6 -7 10 -25 10 -50 0 -24 20 28 22 l47 1 -42 4 c-44 4 -61 23 -20
23 12 0 29 5 37 10 12 8 9 10 -13 10 -39 0 -24 20 16 21 24 1 26 3 10 6 -25 5
-32 23 -9 23 7 0 59 -15 115 -34z m-4 -427 c22 0 51 -4 64 -8 21 -6 22 -8 7
-20 -14 -12 -23 -41 -12 -41 2 0 11 -3 20 -6 10 -4 20 5 32 27 11 23 13 34 5
37 -21 7 -11 22 14 22 14 0 25 -4 25 -10 0 -5 -4 -10 -10 -10 -16 0 -11 -23 9
-48 12 -13 25 -20 35 -16 20 8 21 38 1 54 -22 18 -8 27 58 35 53 6 57 5 57
-15 0 -11 -7 -23 -16 -27 -12 -4 -13 -8 -3 -13 8 -5 -3 -15 -31 -29 -38 -18
-62 -21 -187 -21 -94 0 -142 4 -138 10 4 6 -6 10 -22 10 -15 0 -35 5 -43 10
-12 8 -11 10 7 10 12 0 25 5 28 10 3 6 -5 10 -19 10 -42 0 -41 20 1 21 l38 1
-42 10 c-24 5 -43 13 -43 17 0 4 28 2 63 -5 34 -8 80 -14 102 -15z m95 -40
c-7 -11 -14 -18 -17 -15 -3 3 0 12 7 21 18 21 23 19 10 -6z m90 -10 c0 -6 -4
-7 -10 -4 -5 3 -10 11 -10 16 0 6 5 7 10 4 6 -3 10 -11 10 -16z"/>
<path d="M2446 1790 c3 -68 10 -131 15 -140 10 -17 1 146 -12 220 -5 28 -6 -1
-3 -80z"/>
<path d="M2646 1903 c-11 -11 -6 -23 9 -23 8 0 15 4 15 9 0 13 -16 22 -24 14z"/>
<path d="M2686 1883 c-9 -49 -16 -249 -7 -223 9 28 25 250 17 250 -2 0 -7 -12
-10 -27z"/>
<path d="M2480 1885 c0 -8 5 -15 10 -15 6 0 10 7 10 15 0 8 -4 15 -10 15 -5 0
-10 -7 -10 -15z"/>
<path d="M2482 1808 c6 -18 28 -21 28 -4 0 9 -7 16 -16 16 -9 0 -14 -5 -12
-12z"/>
<path d="M2632 1809 c2 -6 8 -10 13 -10 5 0 11 4 13 10 2 6 -4 11 -13 11 -9 0
-15 -5 -13 -11z"/>
<path d="M2627 1743 c-12 -11 -8 -23 8 -23 8 0 15 7 15 15 0 16 -12 20 -23 8z"/>
<path d="M2490 1725 c0 -9 5 -15 11 -13 6 2 11 8 11 13 0 5 -5 11 -11 13 -6 2
-11 -4 -11 -13z"/>
<path d="M2497 1654 c-8 -8 1 -24 14 -24 5 0 9 7 9 15 0 15 -12 20 -23 9z"/>
<path d="M1869 1873 c-6 -16 -19 -68 -29 -117 -14 -64 -25 -92 -39 -103 -27
-18 -27 -33 0 -33 19 0 21 -4 15 -32 -18 -91 -117 -228 -164 -228 -25 0 -62
36 -62 60 0 10 17 25 41 35 85 39 118 120 59 150 -16 8 -35 15 -42 14 -7 0 -3
-4 10 -9 42 -17 22 -103 -34 -145 -10 -8 -23 -15 -28 -15 -14 0 1 109 19 136
22 33 0 31 -35 -4 -54 -54 -64 -161 -19 -208 18 -19 33 -24 71 -24 41 0 54 5
89 37 22 20 52 60 67 87 l27 51 6 -75 c7 -88 20 -124 49 -140 68 -36 127 74
99 185 -8 33 -26 62 -56 94 -24 25 -42 50 -39 57 5 14 82 34 128 34 18 0 45
-6 60 -14 15 -8 29 -12 32 -8 10 10 6 48 -6 60 -17 17 -35 15 -127 -12 -49
-14 -80 -19 -78 -12 3 6 19 46 37 89 32 75 32 78 15 97 -26 28 -53 25 -66 -7z
m68 -343 c38 -71 28 -180 -16 -180 -27 0 -40 41 -48 153 l-6 102 24 -16 c13
-9 34 -35 46 -59z"/>
<path d="M1289 1713 c-11 -31 -33 -134 -43 -205 -18 -123 -180 -281 -325 -314
-77 -18 -128 -8 -168 32 -28 27 -33 39 -33 78 0 62 20 106 74 164 45 48 140
104 200 117 27 6 28 4 22 -20 -9 -36 9 -65 42 -65 25 0 27 3 28 48 0 29 11 70
27 105 26 58 26 58 4 51 -28 -8 -54 -31 -74 -65 -16 -26 -17 -27 -40 -12 -20
14 -30 14 -66 3 -142 -42 -239 -146 -254 -271 -15 -124 89 -230 212 -216 108
12 232 114 332 273 9 15 11 6 6 -49 -5 -56 -3 -71 12 -87 10 -11 25 -20 34
-20 13 0 16 8 13 40 -4 34 3 52 44 117 53 85 50 86 68 -17 9 -54 41 -100 70
-100 33 0 40 14 21 44 -19 29 -45 119 -45 158 0 16 -8 31 -19 37 -21 12 -36
-2 -101 -94 l-42 -60 6 73 c5 55 15 90 41 142 41 81 43 103 13 124 -32 23 -47
20 -59 -11z"/>
<path d="M2628 1349 c26 -27 10 -114 -30 -156 -26 -28 -19 -29 30 -4 80 41 84
138 7 165 -16 6 -18 5 -7 -5z"/>
<path d="M2546 1321 c-53 -55 -67 -167 -28 -219 16 -20 92 -59 92 -47 0 3 -10
19 -22 36 -30 40 -38 166 -14 222 18 44 9 47 -28 8z"/>
<path d="M2330 1291 c-7 -26 -7 -54 -1 -82 l10 -42 -62 -66 -61 -66 62 59 c34
33 63 58 65 55 11 -11 47 -103 47 -118 0 -37 -51 -55 -80 -28 -12 10 -12 9 -1
-5 21 -27 92 -24 119 5 31 33 28 75 -9 130 -34 52 -37 72 -18 135 15 48 6 62
-38 62 -17 0 -25 -9 -33 -39z"/>
<path d="M2790 1285 c0 -42 -39 -130 -77 -175 -25 -29 -30 -39 -16 -32 35 19
102 103 114 143 12 39 6 89 -11 89 -6 0 -10 -11 -10 -25z"/>
<path d="M2210 1281 c-6 -12 -17 -17 -29 -14 -30 8 -88 -15 -111 -44 -41 -52
-14 -153 58 -217 l22 -19 -55 -59 c-52 -56 -60 -74 -55 -123 6 -64 129 -112
199 -78 20 10 46 33 58 52 46 69 23 132 -79 224 -78 68 -118 128 -118 174 0
40 36 85 64 81 17 -2 21 -10 21 -43 0 -28 5 -40 15 -43 12 -2 19 11 26 45 6
26 14 56 19 66 10 24 -21 23 -35 -2z m12 -385 c34 -67 4 -135 -67 -150 -46
-10 -99 28 -103 74 -2 29 6 45 49 98 l51 63 25 -23 c14 -13 34 -40 45 -62z"/>
<path d="M1409 1196 c-122 -47 -199 -121 -199 -191 0 -34 27 -92 47 -99 23 -9
35 4 18 20 -53 53 48 184 176 229 51 18 155 19 189 2 70 -35 60 -121 -23 -202
-49 -48 -149 -97 -164 -81 -6 5 8 100 24 164 7 29 -24 30 -60 2 -21 -17 -26
-31 -32 -92 -4 -40 -12 -76 -17 -79 -6 -4 -7 -12 -3 -19 4 -7 8 -47 9 -90 1
-61 5 -82 20 -99 28 -31 50 -28 41 6 -9 39 5 173 19 173 6 0 49 -23 96 -51
228 -138 311 -155 364 -74 21 32 16 41 -13 25 -39 -20 -210 24 -334 87 l-47
24 62 42 c140 95 170 240 61 293 -49 24 -183 29 -234 10z"/>
<path d="M1939 1083 c-1 -10 -1 -52 0 -93 2 -62 6 -78 23 -92 11 -10 24 -18
28 -18 14 0 11 203 -3 212 -21 14 -47 9 -48 -9z"/>
<path d="M1786 1082 c-2 -4 -10 -55 -17 -114 -10 -89 -10 -109 1 -123 24 -29
62 -14 98 39 17 26 32 53 32 60 -1 6 -10 -6 -21 -26 -11 -21 -27 -38 -36 -38
-13 0 -15 9 -10 58 3 31 9 73 13 93 6 34 4 37 -25 47 -17 6 -32 8 -35 4z"/>
<path d="M1911 999 c-6 -18 -9 -34 -7 -36 2 -2 9 10 15 28 6 18 9 34 7 36 -2
2 -9 -10 -15 -28z"/>
<path d="M900 993 c-79 -23 -145 -130 -165 -267 -5 -33 -12 -46 -28 -51 l-22
-8 23 -4 c19 -4 22 -11 22 -51 0 -103 32 -154 95 -154 45 0 77 28 112 97 14
28 27 51 28 53 1 1 16 -5 32 -14 46 -27 80 -13 105 43 l20 46 13 -30 c14 -33
43 -48 74 -38 19 6 19 7 -5 42 -13 20 -24 43 -24 52 0 30 -23 51 -47 45 -18
-5 -22 -13 -21 -39 2 -45 -32 -110 -57 -110 -31 0 -40 60 -20 136 22 88 55
120 85 84 7 -8 16 -12 22 -9 17 10 -14 34 -44 34 -16 0 -42 -7 -57 -15 -39
-20 -81 -105 -81 -164 0 -60 -55 -162 -94 -175 -45 -16 -60 10 -64 108 -4 78
-2 85 17 91 63 20 151 156 151 234 0 37 -39 73 -70 64z m38 -62 c2 -25 -4 -64
-13 -88 -16 -42 -96 -133 -117 -133 -21 0 25 178 62 238 15 24 27 32 43 30 18
-2 23 -10 25 -47z"/>
<path d="M425 653 c-61 -16 -125 -111 -125 -186 0 -53 47 -102 88 -92 32 8 69
40 78 67 5 18 7 17 29 -6 28 -30 69 -36 61 -8 -2 9 -8 50 -11 91 -4 41 -11 79
-17 85 -5 6 -14 19 -21 28 -13 19 -52 29 -82 21z m56 -13 c19 -10 27 -40 11
-40 -4 0 -13 -26 -20 -57 -7 -32 -21 -77 -32 -101 -16 -35 -24 -43 -42 -40
-21 3 -23 9 -26 68 -4 74 17 141 51 165 25 18 32 18 58 5z"/>
</g>
</svg>
