<svg xmlns="http://www.w3.org/2000/svg" width="140" height="140" viewBox="0 0 140 140">
  <rect width="140" height="140" fill="#ffffff"/>
  <g fill="none" stroke="#94a3b8" stroke-width="0.55" opacity="0.2">
    <path d="M0 70c23-18 47-18 70 0s47 18 70 0"/>
    <path d="M0 70c23 18 47 18 70 0s47-18 70 0"/>
    <path d="M70 0c-18 23-18 47 0 70s18 47 0 70"/>
    <path d="M70 0c18 23 18 47 0 70s-18 47 0 70"/>
    <ellipse cx="70" cy="70" rx="22" ry="14" transform="rotate(-35 70 70)" opacity="0.65"/>
    <path d="M12 12 Q70 48 128 12"/>
    <path d="M12 128 Q70 92 128 128"/>
    <path d="M12 12 Q48 70 12 128"/>
    <path d="M128 12 Q92 70 128 128"/>
  </g>
  <g fill="none" stroke="#cbd5e1" stroke-width="0.4" opacity="0.35">
    <circle cx="70" cy="24" r="3"/>
    <circle cx="70" cy="116" r="3"/>
    <circle cx="24" cy="70" r="3"/>
    <circle cx="116" cy="70" r="3"/>
  </g>
</svg>
